<?xml version="1.0" standalone="no"?>
<!DOCTYPE svg PUBLIC "-//W3C//DTD SVG 20010904//EN"
 "http://www.w3.org/TR/2001/REC-SVG-20010904/DTD/svg10.dtd">
<svg version="1.0" xmlns="http://www.w3.org/2000/svg"
 width="214.711192pt" height="264.160526pt" viewBox="0 0 214.711192 264.160526"
 preserveAspectRatio="xMidYMid meet">
<metadata>
Created by potrace 1.12, written by Peter Selinger 2001-2015
</metadata>
<g transform="translate(-39.566054,282.769578) scale(0.100000,-0.100000)"
fill="#000000" stroke="none">
<path d="M1335 2819 c-391 -57 -733 -388 -874 -845 -51 -164 -65 -268 -65
-469 -1 -211 16 -320 74 -496 133 -403 406 -690 756 -795 78 -24 107 -27 234
-28 121 -1 159 3 228 22 385 105 694 449 806 899 40 160 49 239 49 403 -1 305
-81 585 -237 825 -80 124 -253 293 -366 360 -187 109 -403 153 -605 124z m187
-161 l3 -33 18 33 c10 17 24 32 32 32 19 0 19 -13 0 -51 -13 -24 -14 -40 -5
-86 13 -72 13 -73 -5 -73 -13 0 -17 9 -28 65 -4 22 -11 11 -21 -38 -13 -56
-26 -13 -26 84 0 79 3 99 14 99 9 0 16 -12 18 -32z m-88 -79 c4 -56 5 -103 2
-106 -12 -12 -26 11 -26 43 0 53 -28 45 -32 -8 -2 -24 -7 -43 -13 -43 -10 0
-37 184 -29 197 11 18 23 6 30 -27 8 -46 34 -47 34 -2 0 33 6 47 20 47 4 0 10
-46 14 -101z m260 81 c13 -13 -3 -30 -30 -30 -30 0 -33 -30 -4 -37 27 -7 22
-37 -8 -41 -25 -4 -32 -42 -8 -42 19 0 28 -14 20 -34 -4 -11 -14 -14 -33 -10
-14 4 -29 9 -33 13 -6 6 8 161 17 189 5 14 61 8 79 -8z m-380 -103 c28 -84 29
-114 4 -89 -18 18 -35 14 -41 -9 -3 -12 -10 -18 -16 -14 -7 4 -11 46 -11 106
0 90 2 100 18 97 12 -2 26 -30 46 -91z m464 77 c26 -18 27 -29 7 -68 -9 -16
-13 -36 -11 -43 3 -7 1 -25 -5 -40 -16 -43 -41 -53 -72 -30 -16 11 -16 17 -2
87 9 41 18 83 21 93 7 21 32 22 62 1z m-590 -26 c20 -20 14 -38 -13 -38 -18 0
-25 -5 -25 -20 0 -34 28 -90 44 -90 21 0 20 20 -1 35 -19 14 -11 45 11 45 9 0
20 -16 26 -41 9 -33 8 -45 -5 -65 -17 -27 -17 -27 -40 -17 -22 8 -65 99 -65
137 0 30 24 66 45 66 6 0 16 -5 23 -12z m686 -64 c-14 -116 -44 -187 -52 -126
-4 24 -21 29 -40 10 -22 -22 -14 19 14 75 39 75 54 97 71 97 12 0 13 -10 7
-56z m-755 -60 c17 -47 31 -87 31 -90 0 -13 -27 -1 -53 24 -25 22 -29 23 -22
7 37 -96 5 -81 -38 18 -42 96 -35 119 18 67 l36 -35 -16 44 c-18 53 -18 51 -1
51 9 0 26 -33 45 -86z m832 24 l0 -53 16 33 c18 35 33 42 33 15 0 -26 -75
-159 -86 -153 -5 3 -8 25 -6 50 l2 45 -21 -39 c-13 -24 -24 -35 -30 -29 -11
11 64 183 81 183 5 0 10 -23 11 -52z m-964 -14 c4 -10 0 -20 -10 -26 -28 -15
-21 -41 7 -34 32 8 43 -10 21 -34 -22 -24 -10 -43 21 -36 35 9 44 -21 13 -44
-13 -10 -27 -16 -31 -14 -12 8 -88 141 -88 154 0 12 39 49 53 50 4 0 10 -7 14
-16z m1093 -39 c13 -16 6 -65 -9 -65 -5 0 -11 9 -14 21 -3 12 -12 19 -19 17
-19 -7 -59 -69 -56 -87 5 -26 33 -19 33 8 0 28 17 38 33 18 17 -20 -45 -91
-71 -82 -40 16 -24 100 30 158 30 30 54 34 73 12z m-1134 -91 c52 -84 50 -110
-6 -69 -42 31 -47 31 -26 3 29 -42 36 -57 28 -62 -13 -8 -114 134 -108 151 6
14 9 14 29 -1 57 -41 62 -41 39 -3 -12 19 -22 39 -22 46 0 27 22 6 66 -65z
m666 35 c130 -27 298 -137 401 -264 61 -76 141 -236 169 -340 18 -68 22 -108
22 -260 1 -99 -3 -197 -7 -217 l-8 -38 -718 0 -719 0 -11 44 c-16 65 -14 319
4 413 35 185 117 337 254 474 69 68 104 95 171 127 47 23 110 48 140 56 66 18
229 20 302 5z m548 -29 c6 -10 7 -26 4 -34 -8 -21 -36 -21 -32 0 2 10 -3 19
-10 22 -11 3 -12 -6 -7 -42 7 -42 5 -48 -23 -76 -44 -43 -83 -21 -62 35 12 32
30 32 30 -1 0 -14 4 -23 10 -19 6 3 9 26 8 51 -2 72 54 116 82 64z m-1350 -55
c-16 -30 -6 -44 20 -28 14 10 21 9 30 -2 7 -9 8 -15 0 -20 -15 -9 -13 -45 3
-45 7 0 18 5 24 11 13 13 33 4 33 -15 0 -7 -9 -21 -20 -31 -20 -18 -22 -18
-80 40 -33 33 -60 65 -60 71 0 6 10 23 21 38 27 35 50 20 29 -19z m1416 -26
c3 -6 -17 -44 -45 -85 -28 -41 -48 -74 -44 -74 5 0 33 16 63 35 58 37 94 45
88 20 -4 -21 -101 -134 -115 -134 -7 -1 -11 11 -10 27 2 20 -2 26 -15 24 -21
-3 -32 15 -33 53 0 25 -4 30 -22 28 -38 -4 -26 14 43 67 71 53 79 56 90 39z
m-1424 -76 c32 -32 58 -64 58 -72 0 -10 -13 -3 -35 19 -41 40 -46 33 -9 -16
32 -42 26 -54 -14 -25 -44 31 -52 25 -12 -8 19 -16 32 -33 28 -36 -10 -10
-138 93 -138 110 0 23 20 27 46 10 34 -22 43 -11 14 20 -20 22 -23 55 -3 55 4
0 33 -26 65 -57z m1528 -96 c0 -7 -11 -28 -25 -47 -29 -39 -26 -49 7 -26 25
18 48 21 48 7 0 -10 -133 -91 -149 -91 -16 0 -14 8 14 44 33 43 32 52 -4 27
-33 -23 -41 -26 -41 -11 0 10 129 110 143 110 4 0 7 -6 7 -13z m-1624 -53 c60
-43 78 -64 54 -64 -6 0 -21 7 -34 16 -40 26 -45 -4 -6 -36 18 -15 29 -29 24
-32 -13 -8 -154 74 -154 89 0 16 5 16 32 2 33 -18 47 5 20 34 -12 13 -22 26
-22 30 0 16 25 4 86 -39z m1689 -153 c-11 -35 -88 -55 -99 -25 -3 9 -12 14
-19 11 -41 -15 -57 -17 -57 -8 0 6 35 28 78 50 l77 39 13 -24 c7 -14 11 -33 7
-43z m-1760 48 c59 -15 95 -30 95 -40 0 -5 -6 -9 -14 -9 -20 0 -30 -18 -18
-33 12 -14 4 -94 -9 -103 -12 -7 -147 34 -155 47 -12 21 7 22 61 5 54 -17 54
-17 76 5 13 13 18 24 12 26 -6 2 -36 22 -67 44 -82 59 -74 83 19 58z m1782
-116 c5 -14 -113 -93 -139 -93 -20 0 -24 15 -8 25 16 10 12 35 -6 35 -9 0 -14
6 -12 13 5 12 106 37 142 34 11 -1 21 -8 23 -14z m-1768 -90 c52 -39 35 -83
-33 -83 -78 0 -133 58 -93 99 17 18 93 8 126 -16z m1786 6 c4 -6 -1 -17 -11
-24 -11 -7 -28 -21 -39 -30 -19 -16 -18 -16 17 -10 43 7 61 -11 25 -24 -14 -6
-53 -13 -86 -17 -52 -6 -61 -4 -61 9 0 9 9 18 19 22 11 3 24 12 31 20 10 12 6
13 -24 8 -51 -8 -46 14 7 27 23 6 53 15 67 20 35 12 48 12 55 -1z m-1900 -105
c18 -12 37 -14 81 -8 45 5 56 4 52 -7 -2 -7 -15 -16 -27 -19 -28 -6 -29 -23
-1 -30 32 -8 29 -25 -5 -28 -75 -7 -185 27 -117 36 27 4 29 19 2 27 -11 3 -20
15 -20 26 0 23 4 23 35 3z m1920 -40 c5 -28 2 -41 -10 -53 -15 -15 -17 -15
-29 2 -10 13 -28 17 -75 17 -46 0 -62 3 -59 13 3 6 18 13 34 15 68 6 94 13 94
27 0 8 8 15 19 15 14 0 21 -10 26 -36z m-1925 -93 c7 -29 24 -32 28 -3 4 27
32 30 32 2 0 -13 7 -20 20 -20 15 0 20 7 20 26 0 19 4 25 18 22 12 -2 17 -13
17 -38 0 -30 -4 -35 -33 -42 -19 -5 -57 -8 -85 -6 -49 3 -52 5 -55 31 -7 56
26 79 38 28z m1890 5 c51 -16 45 -39 -15 -52 -61 -15 -125 -17 -125 -5 0 5 7
11 15 15 19 7 19 35 0 42 -8 4 -12 10 -9 16 6 10 80 2 134 -16z m-1762 -88
c18 -18 14 -46 -7 -58 -26 -13 -31 -13 -31 5 0 8 5 15 10 15 6 0 10 5 10 10 0
20 -31 9 -41 -14 -15 -32 -54 -49 -80 -36 -22 13 -25 52 -4 70 20 16 40 3 24
-16 -6 -8 -9 -18 -5 -22 4 -4 14 2 21 13 8 11 19 26 25 33 14 15 62 16 78 0z
m1756 -7 c16 -3 31 -12 34 -20 4 -11 -8 -12 -64 -7 -82 9 -104 14 -104 27 0
10 88 10 134 0z m72 -253 c-4 -29 -19 -89 -34 -133 l-27 -80 -957 -3 c-904 -2
-958 -1 -966 15 -12 23 -62 214 -62 236 0 16 75 17 1026 17 l1027 0 -7 -52z
m-482 -267 c7 -11 -98 -120 -154 -158 -126 -86 -217 -113 -378 -113 -136 0
-197 13 -295 62 -104 52 -257 185 -241 209 7 12 1061 12 1068 0z m156 -136
c38 -49 41 -58 29 -70 -11 -12 -22 -13 -53 -4 -49 13 -55 6 -27 -32 21 -28 22
-33 8 -47 -18 -17 -26 -10 -83 71 -25 35 -26 39 -11 54 13 13 23 14 56 5 47
-11 51 -3 21 35 -15 20 -17 29 -9 39 15 18 18 15 69 -51z m-1297 19 c3 -4 -1
-20 -9 -36 -20 -38 -14 -44 20 -17 38 30 52 13 32 -36 -21 -49 -13 -56 23 -21
18 18 31 24 36 17 3 -6 -20 -38 -51 -71 -77 -80 -92 -64 -47 49 3 8 -11 1 -33
-17 -32 -27 -41 -30 -52 -18 -12 11 -8 24 25 85 38 70 44 77 56 65z m1120
-155 c77 -40 89 -50 75 -66 -6 -8 -19 -12 -29 -10 -22 6 -56 -30 -61 -62 -6
-49 -26 -31 -53 49 -21 65 -24 84 -15 95 17 20 33 19 83 -6z m-852 -60 c34
-24 38 -56 9 -87 -24 -26 -22 -25 -54 -10 -23 10 -28 8 -47 -16 -20 -25 -39
-27 -39 -3 0 19 78 137 91 137 6 0 24 -9 40 -21z m734 -26 c9 -21 15 -53 13
-73 -3 -29 -9 -38 -40 -53 -30 -15 -41 -16 -58 -7 -26 14 -64 95 -56 116 11
28 38 10 56 -36 18 -47 45 -64 57 -34 3 9 -1 37 -10 62 -9 24 -14 48 -11 53
12 20 35 7 49 -28z m-905 -28 c0 -16 -27 -32 -37 -22 -3 4 -3 13 0 22 8 20 37
20 37 0z m360 -15 c0 -4 -9 -33 -20 -64 l-19 -57 25 -9 c14 -6 30 -10 35 -10
11 0 12 -27 0 -34 -11 -7 -111 22 -111 32 0 15 43 137 52 149 10 12 38 7 38
-7z m360 5 c6 -8 9 -23 5 -35 -5 -15 -1 -26 10 -34 30 -22 15 -59 -35 -84 -25
-12 -52 -21 -60 -20 -9 2 -19 26 -27 63 -19 94 -18 100 25 112 53 15 68 15 82
-2z m-166 -97 c26 -68 28 -98 6 -98 -6 0 -13 7 -16 15 -4 9 -19 15 -39 15 -20
0 -35 -6 -39 -15 -6 -17 -36 -21 -36 -4 0 32 47 159 60 162 28 6 36 -3 64 -75z
m-344 2 c13 -8 13 -11 -2 -27 -21 -20 -43 -6 -32 20 7 19 13 21 34 7z"/>
<path d="M1270 2556 c0 -8 5 -18 10 -21 6 -3 10 1 10 9 0 8 -4 18 -10 21 -5 3
-10 -1 -10 -9z"/>
<path d="M1740 2585 c0 -8 5 -15 10 -15 6 0 10 7 10 15 0 8 -4 15 -10 15 -5 0
-10 -7 -10 -15z"/>
<path d="M1720 2510 c0 -19 11 -26 23 -14 8 8 -3 34 -14 34 -5 0 -9 -9 -9 -20z"/>
<path d="M1827 2506 c-4 -10 -5 -21 -2 -24 9 -9 17 6 13 25 -3 17 -4 17 -11
-1z"/>
<path d="M1317 2260 c-67 -20 -68 -31 -32 -292 15 -99 24 -182 21 -185 -2 -3
-42 71 -88 164 -46 92 -89 169 -96 171 -7 2 -38 -21 -68 -50 -88 -89 -105 -52
213 -467 81 -105 113 -137 113 -113 0 5 -56 103 -125 218 -69 114 -125 212
-125 216 0 26 27 -8 111 -137 52 -79 97 -145 102 -145 10 0 9 64 -3 258 -10
156 -6 211 11 164 5 -12 15 -83 24 -159 33 -293 45 -377 54 -386 17 -17 19 10
10 178 -4 94 -11 255 -15 358 -8 225 -13 235 -107 207z"/>
<path d="M1545 2259 c-4 -6 -17 -133 -30 -282 -35 -406 -39 -480 -26 -473 6 4
11 14 11 21 0 8 6 34 14 57 8 24 24 78 36 121 13 42 27 77 31 77 5 0 9 -75 10
-167 0 -104 4 -160 9 -147 8 21 52 252 65 345 4 25 10 50 13 56 4 6 58 36 120
67 62 31 112 62 112 70 0 8 -27 42 -61 75 -71 72 -58 76 -167 -53 -42 -49 -78
-84 -80 -78 -2 6 15 68 37 138 23 69 41 133 41 141 0 29 -119 58 -135 32z"/>
<path d="M1810 1684 c-102 -118 -186 -221 -188 -229 -6 -26 27 -16 82 25 29
22 58 40 63 40 6 0 14 -11 17 -25 9 -34 69 -99 110 -119 107 -51 226 31 226
156 0 80 -87 356 -115 364 -5 2 -93 -93 -195 -212z m175 -44 c22 -43 20 -111
-5 -138 -22 -23 -31 -25 -66 -16 -20 5 -55 61 -53 87 0 10 96 97 106 97 1 0 9
-13 18 -30z"/>
<path d="M876 1789 c-35 -42 -56 -83 -72 -144 -40 -149 17 -261 137 -273 42
-4 55 0 90 23 22 16 58 51 80 79 57 71 62 73 109 30 31 -28 40 -43 38 -63 -3
-22 -9 -26 -41 -29 -35 -3 -38 -6 -35 -30 3 -25 7 -27 52 -30 98 -6 116 14 91
103 -13 43 -26 60 -85 110 -86 73 -131 100 -153 92 -14 -5 -56 -56 -108 -129
-19 -26 -57 -27 -76 -2 -24 33 -16 80 18 108 17 14 37 26 44 26 37 0 47 92 14
134 -29 37 -70 35 -103 -5z"/>
<path d="M2150 2230 c-8 -5 -11 -12 -7 -16 4 -4 13 -2 19 4 15 15 7 24 -12 12z"/>
<path d="M2205 2139 c-4 -6 -5 -13 -2 -16 7 -7 27 6 27 18 0 12 -17 12 -25 -2z"/>
<path d="M2325 1921 c-3 -5 -1 -12 5 -16 12 -7 30 2 30 16 0 12 -27 12 -35 0z"/>
<path d="M554 1739 c-10 -17 23 -39 58 -39 26 0 40 22 21 33 -23 13 -72 17
-79 6z"/>
<path d="M2350 1500 c0 -5 6 -10 14 -10 8 0 18 5 21 10 3 6 -3 10 -14 10 -12
0 -21 -4 -21 -10z"/>
<path d="M583 1203 c-20 -7 -18 -192 2 -199 8 -4 22 -1 29 5 9 8 16 8 20 2 4
-6 20 -9 36 -8 27 2 30 6 30 35 0 40 15 35 23 -8 7 -34 26 -40 34 -10 6 24 19
26 27 5 9 -25 36 -18 36 10 0 14 5 25 10 25 6 0 10 -10 10 -23 0 -29 7 -37 26
-30 8 3 14 19 14 38 0 19 5 37 10 40 6 4 10 -10 10 -34 0 -23 5 -41 10 -41 6
0 10 39 10 96 0 61 -4 93 -10 89 -5 -3 -10 -19 -10 -36 0 -16 -4 -29 -10 -29
-5 0 -10 16 -10 35 0 28 -4 35 -20 35 -11 0 -20 -7 -20 -15 0 -21 -18 -19 -23
3 -3 9 -6 -23 -7 -73 -2 -96 -12 -86 -25 28 -7 59 -25 80 -25 28 0 -53 -13
-121 -22 -115 -5 3 -6 31 -2 63 5 47 3 61 -11 74 -27 28 -35 11 -35 -79 0 -46
-3 -84 -6 -84 -3 0 -14 4 -24 10 -21 11 -17 45 7 55 14 5 14 8 -2 25 -21 23
-35 18 -35 -12 0 -12 -3 -19 -6 -15 -3 3 -3 20 1 37 4 17 9 29 12 26 9 -9 45
32 38 43 -10 18 -36 12 -42 -9 -5 -19 -6 -19 -22 -1 -9 11 -22 17 -28 14z
m283 -151 c-21 -20 -33 77 -15 109 13 22 14 20 17 -40 2 -35 1 -66 -2 -69z
m-256 92 c0 -8 -4 -14 -10 -14 -5 0 -10 9 -10 21 0 11 5 17 10 14 6 -3 10 -13
10 -21z m112 14 c6 -17 -1 -38 -13 -38 -5 0 -9 11 -9 25 0 26 14 34 22 13z
m-112 -99 c0 -10 -4 -19 -10 -19 -5 0 -10 12 -10 26 0 14 4 23 10 19 6 -3 10
-15 10 -26z"/>
<path d="M1171 1187 c-4 -12 -9 -57 -10 -100 -1 -63 2 -79 16 -84 9 -4 21 1
29 11 11 16 13 16 22 0 7 -12 16 -15 36 -10 21 5 26 12 26 36 0 17 5 30 10 30
6 0 10 -10 10 -22 0 -30 15 -52 29 -44 6 4 11 18 11 32 0 13 5 24 10 24 6 0
10 -11 10 -24 0 -19 7 -26 31 -31 40 -9 59 8 30 27 -24 15 -28 46 -6 54 20 8
19 24 -2 39 -23 17 -10 47 19 43 21 -3 23 -10 29 -83 l5 -80 2 82 c3 112 22
120 22 9 0 -83 15 -119 22 -53 l4 32 10 -34 c12 -40 29 -50 37 -21 6 23 27 27
27 5 0 -11 12 -15 50 -15 46 0 50 2 50 23 0 13 11 37 25 53 l25 29 0 -51 c0
-55 8 -64 56 -64 17 0 24 6 24 20 0 27 26 25 34 -2 7 -29 23 -14 29 27 l4 30
8 -32 c14 -62 25 -33 23 65 -1 53 -3 80 -5 59 -5 -40 -23 -42 -23 -2 0 13 -4
26 -10 30 -5 3 -10 -24 -12 -67 l-3 -73 -8 50 c-20 121 -31 124 -41 9 -3 -43
-8 -79 -10 -81 -2 -2 -11 -1 -20 3 -13 5 -16 21 -16 85 0 64 -3 79 -15 79 -8
0 -15 -5 -15 -12 0 -9 -3 -9 -12 0 -7 7 -27 12 -45 12 -29 0 -33 -3 -34 -27
-1 -26 -1 -27 -7 -5 -14 47 -27 20 -27 -52 0 -102 -12 -105 -21 -7 -3 45 -10
84 -15 86 -4 3 -11 -25 -14 -62 -4 -38 -10 -72 -12 -77 -12 -20 -20 21 -15 76
3 39 1 62 -6 67 -10 6 -79 7 -154 2 -10 -1 -18 -8 -18 -16 0 -21 -18 -19 -23
3 -4 14 -5 14 -6 -3 -1 -19 -1 -19 -16 1 -10 16 -23 20 -52 19 l-38 -3 -3 -48
c-5 -71 -22 -80 -22 -12 0 41 -4 57 -15 62 -10 4 -19 -2 -24 -17z m229 -77 c0
-38 -4 -70 -9 -70 -11 0 -21 77 -14 112 10 52 23 29 23 -42z m-200 34 c0 -8
-4 -14 -10 -14 -5 0 -10 9 -10 21 0 11 5 17 10 14 6 -3 10 -13 10 -21z m80
-44 c0 -38 -3 -70 -6 -70 -3 0 -14 5 -24 10 -21 11 -17 36 9 58 14 11 14 13
-1 23 -25 14 -23 49 2 49 18 0 20 -7 20 -70z m36 34 c-5 -13 -10 -14 -18 -6
-6 6 -8 18 -4 28 5 13 10 14 18 6 6 -6 8 -18 4 -28z m224 5 c0 -10 -4 -19 -10
-19 -5 0 -10 12 -10 26 0 14 4 23 10 19 6 -3 10 -15 10 -26z m185 -9 c-3 -6
-10 -10 -16 -10 -10 0 -12 33 -2 44 9 9 26 -22 18 -34z m-388 -72 c-3 -22 -4
-21 -11 4 -5 16 -5 36 0 45 7 16 8 15 11 -4 3 -13 3 -33 0 -45z m-137 1 c0
-10 -4 -19 -10 -19 -5 0 -10 12 -10 26 0 14 4 23 10 19 6 -3 10 -15 10 -26z"/>
<path d="M2017 1203 c-4 -3 -7 -51 -7 -105 0 -90 2 -98 19 -98 11 0 22 6 24
13 4 9 8 9 15 -2 7 -9 19 -11 41 -6 26 6 31 11 32 38 l1 32 12 -35 c11 -29 18
-35 42 -35 21 0 30 5 32 20 7 36 22 41 22 7 0 -38 25 -44 36 -10 l7 23 8 -23
c10 -28 24 -28 43 -1 13 20 14 20 19 2 3 -10 5 27 5 82 0 55 -3 91 -5 81 -5
-19 -6 -19 -22 2 -11 15 -23 20 -38 16 -21 -6 -23 -12 -23 -80 0 -40 -4 -76
-10 -79 -6 -4 -10 23 -10 74 0 93 -19 113 -22 24 l-2 -58 -3 52 c-4 58 -23 83
-45 59 -11 -12 -15 -12 -30 1 -29 26 -38 6 -38 -88 0 -87 -1 -89 -20 -77 -24
15 -26 46 -5 54 8 4 15 12 15 19 0 7 -7 15 -15 19 -8 3 -15 12 -15 21 0 9 7
18 15 21 8 4 15 12 15 19 0 23 -22 29 -36 10 -12 -16 -14 -16 -29 -1 -19 18
-19 18 -28 9z m25 -65 c-15 -15 -26 -4 -18 18 5 13 9 15 18 6 9 -9 9 -15 0
-24z m118 1 c0 -10 -4 -19 -10 -19 -5 0 -10 12 -10 26 0 14 4 23 10 19 6 -3
10 -15 10 -26z m60 5 c0 -8 -7 -14 -15 -14 -15 0 -21 21 -9 33 10 9 24 -2 24
-19z m118 -43 c-2 -28 -7 -52 -13 -54 -11 -2 -19 87 -10 111 11 31 26 -5 23
-57z m-268 14 c0 -8 -4 -15 -10 -15 -5 0 -10 7 -10 15 0 8 5 15 10 15 6 0 10
-7 10 -15z m131 -35 c13 0 19 -7 19 -21 0 -15 -4 -19 -16 -15 -9 3 -19 6 -24
6 -13 0 -21 31 -13 54 7 21 7 21 11 -1 2 -15 10 -23 23 -23z m-153 -17 c-5
-25 -28 -28 -28 -4 0 12 6 21 16 21 9 0 14 -7 12 -17z"/>
<path d="M932 1103 l-2 -103 26 0 c17 0 28 6 31 20 6 24 21 26 29 5 10 -25 34
-17 34 11 0 14 4 23 10 19 6 -3 10 -15 10 -26 0 -10 5 -19 11 -19 6 0 8 8 5
18 -13 48 -16 104 -8 136 11 36 0 51 -13 19 -7 -17 -8 -16 -15 2 -6 13 -9 -10
-10 -65 -2 -91 -12 -81 -26 26 -3 30 -10 54 -14 54 -4 0 -11 -36 -15 -80 -6
-69 -10 -80 -26 -80 -16 0 -19 10 -22 83 l-3 82 -2 -102z"/>
<path d="M1930 602 c0 -5 6 -16 13 -25 9 -12 16 -14 27 -7 13 9 12 12 -4 25
-22 17 -36 19 -36 7z"/>
<path d="M1090 545 c-14 -16 -5 -35 16 -35 15 0 20 35 5 44 -5 3 -14 -1 -21
-9z"/>
<path d="M1610 470 c0 -22 1 -23 24 -14 23 9 20 34 -4 34 -13 0 -20 -7 -20
-20z"/>
<path d="M1620 411 c0 -27 13 -33 35 -17 21 15 12 36 -16 36 -12 0 -19 -7 -19
-19z"/>
<path d="M1447 419 c-3 -12 0 -22 9 -26 20 -7 24 -1 17 25 -7 28 -19 28 -26 1z"/>
</g>
</svg>
